<svg width="24" height="24" viewBox="0 0 24 24" fill="none" xmlns="http://www.w3.org/2000/svg">
<path d="M4.04484 5.2221C5.0889 4.17786 6.48924 3.56708 7.96488 3.51233C9.44052 3.45757 10.8823 3.9629 12.0008 4.9269C13.1184 3.9645 14.5583 3.45975 16.0321 3.51369C17.506 3.56763 18.9051 4.17628 19.9493 5.21779C20.9936 6.2593 21.6059 7.6568 21.6637 9.13052C21.7215 10.6042 21.2205 12.0454 20.261 13.1655L13.2725 20.1765C12.9515 20.4977 12.5208 20.6856 12.067 20.7027C11.6132 20.7197 11.1697 20.5645 10.8254 20.2683L10.7264 20.1774L3.73884 13.1655C2.77988 12.0464 2.27866 10.6065 2.33539 9.13384C2.39213 7.66115 3.00263 6.26413 4.04484 5.2221V5.2221ZM5.31744 6.4947C4.58146 7.23089 4.15721 8.2222 4.13274 9.26289C4.10827 10.3036 4.48547 11.3137 5.18604 12.0837L5.31744 12.2223L11.9999 18.9048L16.7726 14.1312L13.5911 10.9497L12.6371 11.9037C12.3865 12.1545 12.0888 12.3535 11.7613 12.4892C11.4337 12.625 11.0826 12.6949 10.728 12.695C10.0118 12.6952 9.32495 12.4109 8.81844 11.9046C8.31193 11.3983 8.02728 10.7116 8.02711 9.99544C8.02694 9.27929 8.31127 8.59241 8.81754 8.0859L10.7093 6.1932C9.95646 5.59234 9.01411 5.27942 8.05136 5.3106C7.08861 5.34177 6.16847 5.71499 5.45604 6.3633L5.31744 6.4947V6.4947ZM12.9548 9.0399C13.1236 8.87118 13.3525 8.77639 13.5911 8.77639C13.8298 8.77639 14.0587 8.87118 14.2274 9.0399L18.0452 12.8577L18.6824 12.2223C19.4308 11.4745 19.8568 10.4636 19.8694 9.40581C19.882 8.34799 19.4802 7.32722 18.75 6.5618C18.0197 5.79638 17.0189 5.34708 15.9617 5.30999C14.9044 5.27289 13.8747 5.65095 13.0925 6.3633L12.9548 6.4947L10.091 9.3585C9.93504 9.51439 9.84172 9.72214 9.82878 9.9423C9.81584 10.1625 9.88418 10.3797 10.0208 10.5528L10.091 10.6311C10.2469 10.7871 10.4547 10.8804 10.6748 10.8934C10.895 10.9063 11.1122 10.838 11.2853 10.7013L11.3636 10.6311L12.9548 9.0399V9.0399Z" fill="#1F0433"/>
</svg>
